<svg xmlns="http://www.w3.org/2000/svg" viewBox="0 0 18 17.996"><path d="M9.005 4.384a4.614 4.614 0 104.614 4.614 4.607 4.607 0 00-4.614-4.614zm0 7.614a3 3 0 113-3 3.005 3.005 0 01-3 2.999zm5.879-7.8a1.076 1.076 0 11-1.079-1.079 1.074 1.074 0 011.076 1.076zM17.94 5.29a5.326 5.326 0 00-1.454-3.771A5.361 5.361 0 0012.712.062c-1.486-.084-5.939-.084-7.425 0a5.353 5.353 0 00-3.771 1.45A5.343 5.343 0 00.063 5.283c-.084 1.486-.084 5.939 0 7.425a5.326 5.326 0 001.454 3.771 5.368 5.368 0 003.77 1.453c1.486.084 5.939.084 7.425 0a5.326 5.326 0 003.771-1.454 5.361 5.361 0 001.454-3.771c.084-1.486.084-5.935 0-7.421zm-1.923 9.012a3.037 3.037 0 01-1.712 1.711c-1.185.47-4 .361-5.3.361s-4.124.1-5.3-.361a3.037 3.037 0 01-1.719-1.711c-.47-1.185-.361-4-.361-5.3s-.1-4.124.361-5.3a3.037 3.037 0 011.711-1.72c1.185-.47 4-.361 5.3-.361s4.124-.1 5.3.361a3.037 3.037 0 011.711 1.711c.47 1.185.361 4 .361 5.3s.118 4.129-.352 5.309z"/></svg>