<?xml version="1.0" encoding="utf-8"?><svg xmlns="http://www.w3.org/2000/svg" xmlns:xlink="http://www.w3.org/1999/xlink"><symbol viewBox="0 0 29.25 29.25" id="icon-arrow01" xmlns="http://www.w3.org/2000/svg"><path d="M0 14.625A14.625 14.625 0 1114.625 29.25 14.622 14.622 0 010 14.625zm5.878-8.747a12.37 12.37 0 1017.494 17.494A12.37 12.37 0 105.878 5.878zm5.7 16.362a1.356 1.356 0 010-1.92l5.618-5.7-5.758-5.7A1.341 1.341 0 0111.44 7a1.362 1.362 0 011.92 0l6.708 6.729a1.356 1.356 0 01.042 1.87l-6.61 6.63a1.359 1.359 0 01-1.92.007z"/></symbol><symbol viewBox="0 0 20.243 13.501" id="icon-arrow02" xmlns="http://www.w3.org/2000/svg"><path d="M12.909.259a.919.919 0 00-.007 1.294l4.275 4.282H.907a.914.914 0 000 1.828H17.17l-4.275 4.286a.925.925 0 00.007 1.294.91.91 0 001.287-.007L19.983 7.4a1.026 1.026 0 00.19-.288.872.872 0 00.07-.352.916.916 0 00-.26-.64L14.189.284a.9.9 0 00-1.28-.025z"/></symbol><symbol viewBox="0 0 9.56 16.25" id="icon-arrow03" xmlns="http://www.w3.org/2000/svg"><path d="M.401.395a1.362 1.362 0 011.92 0l6.708 6.729a1.356 1.356 0 01.042 1.87l-6.609 6.63a1.355 1.355 0 11-1.92-1.912l5.618-5.7-5.759-5.7a1.341 1.341 0 010-1.917z"/></symbol><symbol viewBox="0 0 20 20" id="icon-check" xmlns="http://www.w3.org/2000/svg"><path d="M5.444 7.889L3.889 9.444l5 5L20 3.333l-1.555-1.555-9.556 9.5zm12.333 9.889H2.222V2.222h11.111V0H2.222A2.229 2.229 0 000 2.222v15.556A2.229 2.229 0 002.222 20h15.556A2.229 2.229 0 0020 17.778V8.889h-2.222z"/></symbol><symbol viewBox="0 0 128 128" id="icon-facebook"><path d="M116.42 5.07H11.58a6.5 6.5 0 00-6.5 6.5v104.85a6.5 6.5 0 006.5 6.5H68V77.29H52.66V59.5H68V46.38c0-15.22 9.3-23.51 22.88-23.51a126 126 0 0113.72.7v15.91h-9.39c-7.39 0-8.82 3.51-8.82 8.66V59.5H104l-2.29 17.79H86.39v45.64h30a6.51 6.51 0 006.5-6.5V11.58a6.5 6.5 0 00-6.47-6.51z"/></symbol><symbol viewBox="0 0 18 17.996" id="icon-instagram" xmlns="http://www.w3.org/2000/svg"><path d="M9.005 4.384a4.614 4.614 0 104.614 4.614 4.607 4.607 0 00-4.614-4.614zm0 7.614a3 3 0 113-3 3.005 3.005 0 01-3 2.999zm5.879-7.8a1.076 1.076 0 11-1.079-1.079 1.074 1.074 0 011.076 1.076zM17.94 5.29a5.326 5.326 0 00-1.454-3.771A5.361 5.361 0 0012.712.062c-1.486-.084-5.939-.084-7.425 0a5.353 5.353 0 00-3.771 1.45A5.343 5.343 0 00.063 5.283c-.084 1.486-.084 5.939 0 7.425a5.326 5.326 0 001.454 3.771 5.368 5.368 0 003.77 1.453c1.486.084 5.939.084 7.425 0a5.326 5.326 0 003.771-1.454 5.361 5.361 0 001.454-3.771c.084-1.486.084-5.935 0-7.421zm-1.923 9.012a3.037 3.037 0 01-1.712 1.711c-1.185.47-4 .361-5.3.361s-4.124.1-5.3-.361a3.037 3.037 0 01-1.719-1.711c-.47-1.185-.361-4-.361-5.3s-.1-4.124.361-5.3a3.037 3.037 0 011.711-1.72c1.185-.47 4-.361 5.3-.361s4.124-.1 5.3.361a3.037 3.037 0 011.711 1.711c.47 1.185.361 4 .361 5.3s.118 4.129-.352 5.309z"/></symbol><symbol viewBox="0 0 40 40" id="icon-top" xmlns="http://www.w3.org/2000/svg"><path d="M9.576 24.354a1.863 1.863 0 010-2.625l9.2-9.173a1.854 1.854 0 012.558-.058l9.067 9.038a1.853 1.853 0 11-2.615 2.625l-7.788-7.673-7.8 7.875a1.854 1.854 0 01-2.622-.009z"/><path d="M20 40A20 20 0 100 20a20 20 0 0020 20zm0-3.077A16.916 16.916 0 018.038 8.038a16.917 16.917 0 1123.924 23.924A16.778 16.778 0 0120 36.925z"/></symbol><symbol viewBox="0 0 24 24" id="icon-twitter" xmlns="http://www.w3.org/2000/svg"><path d="M24 4.557a9.83 9.83 0 01-2.828.775 4.932 4.932 0 002.165-2.724 9.864 9.864 0 01-3.127 1.195 4.916 4.916 0 00-3.594-1.555c-3.179 0-5.515 2.966-4.797 6.045A13.978 13.978 0 011.671 3.149a4.93 4.93 0 001.523 6.574 4.903 4.903 0 01-2.229-.616c-.054 2.281 1.581 4.415 3.949 4.89a4.935 4.935 0 01-2.224.084 4.928 4.928 0 004.6 3.419A9.9 9.9 0 010 19.54a13.94 13.94 0 007.548 2.212c9.142 0 14.307-7.721 13.995-14.646A10.025 10.025 0 0024 4.557z"/></symbol><symbol viewBox="0 0 365.654 250" id="mv-lower-decoration_pc" xmlns="http://www.w3.org/2000/svg"><path d="M0 0h365.654L220 250H0z" opacity=".8"/></symbol><symbol viewBox="0 0 165.654 250" id="mv-lower-decoration_sp" xmlns="http://www.w3.org/2000/svg"><path d="M0 0h165.654L20 250H0z" opacity=".8"/></symbol><symbol viewBox="0 0 103 125" id="number01" xmlns="http://www.w3.org/2000/svg"><g font-family="FiraSans-MediumItalic, Fira Sans" font-size="100" font-style="italic" font-weight="500"><text transform="translate(103 98)"><tspan x="-98.4" y="0">01</tspan></text><text transform="translate(99 94)"><tspan x="-98.4" y="0">01</tspan></text></g></symbol><symbol viewBox="0 0 110 125" id="number02" xmlns="http://www.w3.org/2000/svg"><g font-family="FiraSans-MediumItalic, Fira Sans" font-size="100" font-style="italic" font-weight="500"><text transform="translate(110 98)"><tspan x="-105.3" y="0">02</tspan></text><text transform="translate(106 94)"><tspan x="-105.3" y="0">02</tspan></text></g></symbol><symbol viewBox="0 0 110 125" id="number03" xmlns="http://www.w3.org/2000/svg"><g font-family="FiraSans-MediumItalic, Fira Sans" font-size="100" font-style="italic" font-weight="500"><text transform="translate(110 98)"><tspan x="-105.7" y="0">03</tspan></text><text transform="translate(106 94)"><tspan x="-105.7" y="0">03</tspan></text></g></symbol><symbol viewBox="0 0 7.59 12.91" id="pagination-next" xmlns="http://www.w3.org/2000/svg"><path d="M.318.317a1.081 1.081 0 011.524 0l5.325 5.342A1.076 1.076 0 017.2 7.144l-5.247 5.264A1.076 1.076 0 11.429 10.89l4.46-4.527L.318 1.836a1.065 1.065 0 010-1.519z"/></symbol><symbol viewBox="0 0 7.59 12.91" id="pagination-prev" xmlns="http://www.w3.org/2000/svg"><path d="M7.163.317a1.081 1.081 0 00-1.524 0L.314 5.659a1.076 1.076 0 00-.033 1.485l5.247 5.263a1.076 1.076 0 101.524-1.518l-4.46-4.527 4.571-4.527a1.065 1.065 0 000-1.518z"/></symbol><symbol viewBox="0 0 60.409 44.729" id="wp-blockquote" xmlns="http://www.w3.org/2000/svg"><path d="M37.726 27.936q0-12.1 5.85-18.942T60.011 0v8.277q-8.039 2.467-10.824 8.914a12.569 12.569 0 00-1.273 6.606h12.5V44.73H37.726zM0 27.936Q0 15.998 5.691 9.073T22.285 0v8.277q-8.118 2.547-10.9 8.755a14.194 14.194 0 00-1.194 6.765h12.5V44.73H0z"/></symbol></svg>