
<svg xmlns="http://www.w3.org/2000/svg" width="40" height="40" viewBox="0 0 40 40"><defs><style>.a{fill:#fff;}</style></defs><g transform="translate(-3.375 -3.375)"><path class="a" d="M10.523,24.5a1.863,1.863,0,0,1,0-2.625l9.2-9.173a1.854,1.854,0,0,1,2.558-.058l9.067,9.038a1.853,1.853,0,1,1-2.615,2.625l-7.788-7.673-7.8,7.875A1.854,1.854,0,0,1,10.523,24.5Z" transform="translate(2.428 3.229)"/><path class="a" d="M23.375,43.375a20,20,0,1,0-20-20A20,20,0,0,0,23.375,43.375Zm0-3.077A16.916,16.916,0,0,1,11.413,11.413,16.916,16.916,0,1,1,35.337,35.337,16.778,16.778,0,0,1,23.375,40.3Z"/></g></svg>